# xmcd
#
# Track frame offsets:
#	150
#	32641
#	77051
#	110515
#	149536
#	175894
#	207162
#	226344
#	265380
#	293214
#
# Disc length: 4245 seconds
#
# Revision: 1
# Processed by: cddbd v1.5.2PL0 Copyright (c) Steve Scherf et al.
# Submitted via: audiograbber 1.83.01
#
DISCID=8f10930a
DTITLE=Grateful Dead - 82-10-10 Frost Amphitheatre, Palo Alto CA
DYEAR=1900
DGENRE=
TTITLE0=Minglewood Blues
TTITLE1=Sugaree
TTITLE2=Little Red Rooster
TTITLE3=Tennessee Jed
TTITLE4=Cassidy
TTITLE5=Loser
TTITLE6=Far From Me
TTITLE7=Looks Like Rain
TTITLE8=China Cat Sunflower
TTITLE9=I Know You Rider
EXTD=
EXTT0=
EXTT1=
EXTT2=
EXTT3=
EXTT4=
EXTT5=
EXTT6=
EXTT7=
EXTT8=
EXTT9=
PLAYORDER=
